<svg width="80" height="43" viewBox="0 0 80 43" fill="none" xmlns="http://www.w3.org/2000/svg">
<g id="Vector">
<path d="M78.6189 6.6497C80.2298 3.85888 77.6218 0.526283 74.5285 1.41483L34.9761 12.7565L9.36343 5.41327C6.90608 4.70864 4.65924 7.03525 5.44918 9.46601L8.91361 20.1075C9.12141 20.7452 9.1928 21.4195 9.12313 22.0866C9.05346 22.7536 8.8443 23.3986 8.50923 23.9796L1.32997 36.437C-0.110319 38.922 2.21629 41.8912 4.97056 41.1002L36.6103 32.0275L69.5972 41.4846C72.3559 42.2757 74.8786 39.6632 73.9923 36.9333L70.0304 24.7131C69.8243 24.0761 69.754 23.403 69.8241 22.7372C69.8941 22.0714 70.1029 21.4277 70.437 20.8476L78.6189 6.6497Z" fill="white"/>
<path fill-rule="evenodd" clip-rule="evenodd" d="M69.3557 42.3376C69.7649 42.4561 70.1886 42.5169 70.6146 42.5182C71.3171 42.5116 72.0083 42.3397 72.6322 42.0166C73.2561 41.6934 73.7953 41.2279 74.2061 40.6578C74.6169 40.0877 74.8879 39.4289 74.997 38.7348C75.1061 38.0406 75.0504 37.3305 74.8343 36.6618L70.8724 24.4405C70.705 23.9213 70.6481 23.3729 70.7054 22.8304C70.7626 22.2879 70.9327 21.7635 71.2048 21.2907L79.3867 7.09281C79.8421 6.32479 80.0527 5.43624 79.9903 4.54554C79.928 3.65484 79.5957 2.80429 79.0377 2.10721C78.4964 1.39715 77.7515 0.868954 76.9024 0.593027C76.0532 0.317098 75.1401 0.30655 74.2848 0.562787L34.9783 11.8347L9.60719 4.56123C8.89567 4.3574 8.14207 4.3511 7.42724 4.54301C6.7124 4.73492 6.06329 5.1178 5.54953 5.65059C5.03576 6.18337 4.67671 6.84596 4.5109 7.5673C4.34508 8.28863 4.37875 9.04149 4.6083 9.74514L8.07384 20.3811C8.24204 20.901 8.29936 21.4505 8.24211 21.994C8.18486 22.5375 8.01431 23.0629 7.74147 23.5364L0.559995 35.9937C0.144733 36.6946 -0.0471728 37.5054 0.00982914 38.3181C0.0668311 39.1307 0.370036 39.9068 0.879073 40.5428C1.37317 41.1904 2.05278 41.6721 2.82743 41.9239C3.60209 42.1756 4.43504 42.1855 5.21543 41.9521L36.6103 32.9536L69.3557 42.3376ZM36.8551 31.1766L36.6103 31.1068L4.72685 40.2481C4.28532 40.3749 3.81598 40.3669 3.37906 40.225C2.94215 40.0831 2.5576 39.8139 2.27479 39.4519C1.99198 39.0899 1.82382 38.6517 1.79188 38.1934C1.75994 37.7351 1.86569 37.2778 2.09556 36.8801L9.27704 24.4227C9.67425 23.7332 9.9222 22.9679 10.0048 22.1764C10.0875 21.385 10.003 20.585 9.75676 19.8282L6.29232 9.1923C6.16321 8.79467 6.14469 8.36941 6.23876 7.96207C6.33283 7.55472 6.53593 7.18064 6.82633 6.87989C7.11672 6.57914 7.48345 6.36305 7.88725 6.25477C8.29105 6.14649 8.7167 6.15009 9.1186 6.2652L34.9728 13.676L74.7734 2.26454C75.2897 2.11158 75.8402 2.11898 76.3522 2.28575C76.8642 2.45252 77.3135 2.77081 77.6407 3.1985C77.9762 3.61962 78.1759 4.13266 78.2135 4.66977C78.2511 5.20688 78.1247 5.74274 77.8512 6.20648L69.6692 20.4055C69.2737 21.0932 69.0264 21.8561 68.9434 22.6451C68.8604 23.4341 68.9435 24.2317 69.1873 24.9867L73.1492 37.2102C73.3002 37.6756 73.3218 38.1733 73.2116 38.6499C73.1014 39.1266 72.8636 39.5643 72.5237 39.9162C72.1838 40.268 71.7545 40.5208 71.2819 40.6474C70.8094 40.774 70.3113 40.7696 69.841 40.6348L36.8551 31.1766Z" fill="#008AD8"/>
<path fill-rule="evenodd" clip-rule="evenodd" d="M76.7548 41.4911L77.0269 42.0241H76.6945L76.4608 41.5411H76.3356V42.0241H76.012V40.678H76.5117C76.802 40.678 77.0125 40.8597 77.0125 41.1278C77.0122 41.2076 76.9873 41.2854 76.9411 41.3505C76.8949 41.4154 76.8299 41.4645 76.7548 41.4911ZM76.3333 41.2851V40.9616H76.4707C76.6003 40.9616 76.6746 41.0137 76.6746 41.1267C76.6746 41.2397 76.6003 41.2851 76.4707 41.2851H76.3333Z" fill="#008AD8"/>
<path fill-rule="evenodd" clip-rule="evenodd" d="M77.2062 40.2842C76.9933 40.1492 76.7449 40.0807 76.4929 40.0875C76.1613 40.0922 75.8452 40.2283 75.614 40.466C75.3827 40.7036 75.2553 41.0234 75.2598 41.3549C75.2598 41.6071 75.3351 41.8534 75.476 42.0625C75.6168 42.2717 75.8168 42.434 76.0505 42.5288C76.2841 42.6237 76.5406 42.6467 76.7874 42.5949C77.0342 42.5432 77.2599 42.419 77.4357 42.2383C77.6115 42.0576 77.7294 41.8286 77.7744 41.5805C77.8193 41.3324 77.7893 41.0766 77.6881 40.8456C77.5868 40.6147 77.4191 40.4193 77.2062 40.2842ZM77.0304 42.1606C76.8695 42.2607 76.6823 42.3104 76.4929 42.3033V42.3044C76.3702 42.3027 76.2491 42.2767 76.1365 42.2279C76.0239 42.179 75.9221 42.1084 75.8371 42.02C75.752 41.9316 75.6852 41.8272 75.6407 41.7129C75.5962 41.5985 75.5748 41.4765 75.5777 41.3538C75.5776 41.1643 75.6342 40.9791 75.7402 40.8219C75.8462 40.6648 75.9967 40.5429 76.1724 40.4719C76.3482 40.401 76.5412 40.3842 76.7265 40.4237C76.9119 40.4632 77.0812 40.5573 77.2128 40.6937C77.3443 40.8302 77.432 41.0029 77.4647 41.1896C77.4974 41.3763 77.4735 41.5685 77.3961 41.7415C77.3187 41.9145 77.1914 42.0604 77.0304 42.1606Z" fill="#008AD8"/>
<path fill-rule="evenodd" clip-rule="evenodd" d="M31.494 15.7291C27.7947 15.7291 24.2748 18.7792 23.6466 22.5306C23.0185 26.282 25.5146 29.3309 29.2139 29.3309C32.9132 29.3309 36.4352 26.2798 37.0634 22.5306C37.6916 18.7814 35.1944 15.7291 31.494 15.7291ZM29.6715 26.5734C27.7647 26.5734 26.5206 24.7586 26.9017 22.5306C27.2828 20.3026 29.1363 18.4867 31.0419 18.4867C32.9475 18.4867 34.1928 20.3004 33.8117 22.5306C33.4306 24.7608 31.576 26.5734 29.6715 26.5734Z" fill="#E40046"/>
<path d="M20.94 21.827L16.8407 19.2966C16.8071 19.2674 16.7809 19.2308 16.7642 19.1896C16.7474 19.1484 16.7406 19.1038 16.7444 19.0595C16.7515 18.9758 16.7894 18.8977 16.8508 18.8404C16.9122 18.7831 16.9927 18.7506 17.0767 18.7493H22.4191L23.9945 16.0238H16.9693C15.2287 16.0238 13.7142 17.4342 13.5857 19.1747C13.5365 19.7212 13.6438 20.2704 13.8949 20.7582C14.1459 21.2461 14.5305 21.6525 15.0038 21.9301L19.174 24.568C19.3025 24.6457 19.4066 24.7579 19.4744 24.8919C19.5421 25.0259 19.5709 25.1763 19.5573 25.3258C19.5382 25.5455 19.4439 25.7519 19.2903 25.9101C19.1367 26.0683 18.9332 26.1687 18.7142 26.1944H11.8928L10.2553 29.0373H18.5536C20.6763 29.0373 22.5243 27.3156 22.6805 25.1929C22.7404 24.5244 22.6085 23.8527 22.3002 23.2566C21.9919 22.6605 21.5201 22.1646 20.94 21.827Z" fill="#E40046"/>
<path d="M54.1928 29.0362H50.9799L53.1347 16.0238H56.3477L54.1928 29.0362Z" fill="#E40046"/>
<path d="M66.4807 27.7267C65.2786 28.8013 63.6954 29.3309 62.0247 29.3309C57.9996 29.3309 55.8879 26.4803 56.5505 22.4752C57.2407 18.3094 60.6863 15.7335 64.5097 15.7335C65.8713 15.7335 67.1576 16.0792 67.9143 16.7738L66.4397 19.322C65.8968 18.7415 65.1013 18.4811 64.0998 18.4811C62.0568 18.4811 60.1113 20.0322 59.7169 22.4042C59.3058 24.8838 60.5367 26.5678 62.8113 26.5678C63.7463 26.5678 64.9329 26.2066 65.7029 25.3247L66.4807 27.7267Z" fill="#E40046"/>
<path d="M43.2456 16.7006L46.9438 24.3962L48.3264 16.0248H51.4662L49.6404 27.054C49.4 28.5985 48.794 29.3208 47.4645 29.3208C46.6601 29.3208 45.7539 29.117 45.2198 27.9913L41.7598 20.8187L40.4004 29.0361H37.2606L39.4144 16.0226H42.1664C42.3919 16.0226 42.6128 16.0862 42.8037 16.2062C42.9946 16.3261 43.1477 16.4975 43.2456 16.7006Z" fill="#E40046"/>
</g>
</svg>
